%TF.GenerationSoftware,KiCad,Pcbnew,(5.1.8)-1*%
%TF.CreationDate,2021-05-29T17:14:19-04:00*%
%TF.ProjectId,panel,70616e65-6c2e-46b6-9963-61645f706362,rev?*%
%TF.SameCoordinates,Original*%
%TF.FileFunction,Legend,Top*%
%TF.FilePolarity,Positive*%
%FSLAX46Y46*%
G04 Gerber Fmt 4.6, Leading zero omitted, Abs format (unit mm)*
G04 Created by KiCad (PCBNEW (5.1.8)-1) date 2021-05-29 17:14:19*
%MOMM*%
%LPD*%
G01*
G04 APERTURE LIST*
%ADD10C,0.150000*%
%ADD11C,0.300000*%
%ADD12C,0.200000*%
%ADD13C,0.120000*%
G04 APERTURE END LIST*
D10*
X111980952Y-60502380D02*
X111980952Y-61216666D01*
X111933333Y-61359523D01*
X111838095Y-61454761D01*
X111695238Y-61502380D01*
X111600000Y-61502380D01*
X112933333Y-61502380D02*
X112457142Y-61502380D01*
X112457142Y-60502380D01*
X113838095Y-61407142D02*
X113790476Y-61454761D01*
X113647619Y-61502380D01*
X113552380Y-61502380D01*
X113409523Y-61454761D01*
X113314285Y-61359523D01*
X113266666Y-61264285D01*
X113219047Y-61073809D01*
X113219047Y-60930952D01*
X113266666Y-60740476D01*
X113314285Y-60645238D01*
X113409523Y-60550000D01*
X113552380Y-60502380D01*
X113647619Y-60502380D01*
X113790476Y-60550000D01*
X113838095Y-60597619D01*
X114552380Y-60502380D02*
X114552380Y-61216666D01*
X114504761Y-61359523D01*
X114409523Y-61454761D01*
X114266666Y-61502380D01*
X114171428Y-61502380D01*
X115504761Y-61502380D02*
X115028571Y-61502380D01*
X115028571Y-60502380D01*
X116409523Y-61407142D02*
X116361904Y-61454761D01*
X116219047Y-61502380D01*
X116123809Y-61502380D01*
X115980952Y-61454761D01*
X115885714Y-61359523D01*
X115838095Y-61264285D01*
X115790476Y-61073809D01*
X115790476Y-60930952D01*
X115838095Y-60740476D01*
X115885714Y-60645238D01*
X115980952Y-60550000D01*
X116123809Y-60502380D01*
X116219047Y-60502380D01*
X116361904Y-60550000D01*
X116409523Y-60597619D01*
X117123809Y-60502380D02*
X117123809Y-61216666D01*
X117076190Y-61359523D01*
X116980952Y-61454761D01*
X116838095Y-61502380D01*
X116742857Y-61502380D01*
X118076190Y-61502380D02*
X117600000Y-61502380D01*
X117600000Y-60502380D01*
X118980952Y-61407142D02*
X118933333Y-61454761D01*
X118790476Y-61502380D01*
X118695238Y-61502380D01*
X118552380Y-61454761D01*
X118457142Y-61359523D01*
X118409523Y-61264285D01*
X118361904Y-61073809D01*
X118361904Y-60930952D01*
X118409523Y-60740476D01*
X118457142Y-60645238D01*
X118552380Y-60550000D01*
X118695238Y-60502380D01*
X118790476Y-60502380D01*
X118933333Y-60550000D01*
X118980952Y-60597619D01*
X119695238Y-60502380D02*
X119695238Y-61216666D01*
X119647619Y-61359523D01*
X119552380Y-61454761D01*
X119409523Y-61502380D01*
X119314285Y-61502380D01*
X120647619Y-61502380D02*
X120171428Y-61502380D01*
X120171428Y-60502380D01*
X121552380Y-61407142D02*
X121504761Y-61454761D01*
X121361904Y-61502380D01*
X121266666Y-61502380D01*
X121123809Y-61454761D01*
X121028571Y-61359523D01*
X120980952Y-61264285D01*
X120933333Y-61073809D01*
X120933333Y-60930952D01*
X120980952Y-60740476D01*
X121028571Y-60645238D01*
X121123809Y-60550000D01*
X121266666Y-60502380D01*
X121361904Y-60502380D01*
X121504761Y-60550000D01*
X121552380Y-60597619D01*
X64435595Y-79127380D02*
X64435595Y-78127380D01*
X64673690Y-78127380D01*
X64816547Y-78175000D01*
X64911785Y-78270238D01*
X64959404Y-78365476D01*
X65007023Y-78555952D01*
X65007023Y-78698809D01*
X64959404Y-78889285D01*
X64911785Y-78984523D01*
X64816547Y-79079761D01*
X64673690Y-79127380D01*
X64435595Y-79127380D01*
X65435595Y-79127380D02*
X65435595Y-78127380D01*
X66483214Y-79127380D02*
X66149880Y-78651190D01*
X65911785Y-79127380D02*
X65911785Y-78127380D01*
X66292738Y-78127380D01*
X66387976Y-78175000D01*
X66435595Y-78222619D01*
X66483214Y-78317857D01*
X66483214Y-78460714D01*
X66435595Y-78555952D01*
X66387976Y-78603571D01*
X66292738Y-78651190D01*
X65911785Y-78651190D01*
X66911785Y-78603571D02*
X67245119Y-78603571D01*
X67387976Y-79127380D02*
X66911785Y-79127380D01*
X66911785Y-78127380D01*
X67387976Y-78127380D01*
X68387976Y-79032142D02*
X68340357Y-79079761D01*
X68197500Y-79127380D01*
X68102261Y-79127380D01*
X67959404Y-79079761D01*
X67864166Y-78984523D01*
X67816547Y-78889285D01*
X67768928Y-78698809D01*
X67768928Y-78555952D01*
X67816547Y-78365476D01*
X67864166Y-78270238D01*
X67959404Y-78175000D01*
X68102261Y-78127380D01*
X68197500Y-78127380D01*
X68340357Y-78175000D01*
X68387976Y-78222619D01*
X68673690Y-78127380D02*
X69245119Y-78127380D01*
X68959404Y-79127380D02*
X68959404Y-78127380D01*
X69578452Y-79127380D02*
X69578452Y-78127380D01*
X70245119Y-78127380D02*
X70435595Y-78127380D01*
X70530833Y-78175000D01*
X70626071Y-78270238D01*
X70673690Y-78460714D01*
X70673690Y-78794047D01*
X70626071Y-78984523D01*
X70530833Y-79079761D01*
X70435595Y-79127380D01*
X70245119Y-79127380D01*
X70149880Y-79079761D01*
X70054642Y-78984523D01*
X70007023Y-78794047D01*
X70007023Y-78460714D01*
X70054642Y-78270238D01*
X70149880Y-78175000D01*
X70245119Y-78127380D01*
X71102261Y-79127380D02*
X71102261Y-78127380D01*
X71673690Y-79127380D01*
X71673690Y-78127380D01*
X73245119Y-78603571D02*
X72911785Y-78603571D01*
X72911785Y-79127380D02*
X72911785Y-78127380D01*
X73387976Y-78127380D01*
X73768928Y-79127380D02*
X73768928Y-78127380D01*
X74245119Y-79127380D02*
X74245119Y-78127380D01*
X74816547Y-79127380D01*
X74816547Y-78127380D01*
X75292738Y-79127380D02*
X75292738Y-78127380D01*
X75530833Y-78127380D01*
X75673690Y-78175000D01*
X75768928Y-78270238D01*
X75816547Y-78365476D01*
X75864166Y-78555952D01*
X75864166Y-78698809D01*
X75816547Y-78889285D01*
X75768928Y-78984523D01*
X75673690Y-79079761D01*
X75530833Y-79127380D01*
X75292738Y-79127380D01*
X76292738Y-78603571D02*
X76626071Y-78603571D01*
X76768928Y-79127380D02*
X76292738Y-79127380D01*
X76292738Y-78127380D01*
X76768928Y-78127380D01*
X77768928Y-79127380D02*
X77435595Y-78651190D01*
X77197500Y-79127380D02*
X77197500Y-78127380D01*
X77578452Y-78127380D01*
X77673690Y-78175000D01*
X77721309Y-78222619D01*
X77768928Y-78317857D01*
X77768928Y-78460714D01*
X77721309Y-78555952D01*
X77673690Y-78603571D01*
X77578452Y-78651190D01*
X77197500Y-78651190D01*
X65007023Y-80777380D02*
X64673690Y-80301190D01*
X64435595Y-80777380D02*
X64435595Y-79777380D01*
X64816547Y-79777380D01*
X64911785Y-79825000D01*
X64959404Y-79872619D01*
X65007023Y-79967857D01*
X65007023Y-80110714D01*
X64959404Y-80205952D01*
X64911785Y-80253571D01*
X64816547Y-80301190D01*
X64435595Y-80301190D01*
X65435595Y-80253571D02*
X65768928Y-80253571D01*
X65911785Y-80777380D02*
X65435595Y-80777380D01*
X65435595Y-79777380D01*
X65911785Y-79777380D01*
X66197500Y-79777380D02*
X66530833Y-80777380D01*
X66864166Y-79777380D01*
X68483214Y-80777380D02*
X67911785Y-80777380D01*
X68197500Y-80777380D02*
X68197500Y-79777380D01*
X68102261Y-79920238D01*
X68007023Y-80015476D01*
X67911785Y-80063095D01*
X68911785Y-80682142D02*
X68959404Y-80729761D01*
X68911785Y-80777380D01*
X68864166Y-80729761D01*
X68911785Y-80682142D01*
X68911785Y-80777380D01*
X69911785Y-80777380D02*
X69340357Y-80777380D01*
X69626071Y-80777380D02*
X69626071Y-79777380D01*
X69530833Y-79920238D01*
X69435595Y-80015476D01*
X69340357Y-80063095D01*
X64435595Y-84077380D02*
X64435595Y-83077380D01*
X64768928Y-83791666D01*
X65102261Y-83077380D01*
X65102261Y-84077380D01*
X66007023Y-84077380D02*
X66007023Y-83553571D01*
X65959404Y-83458333D01*
X65864166Y-83410714D01*
X65673690Y-83410714D01*
X65578452Y-83458333D01*
X66007023Y-84029761D02*
X65911785Y-84077380D01*
X65673690Y-84077380D01*
X65578452Y-84029761D01*
X65530833Y-83934523D01*
X65530833Y-83839285D01*
X65578452Y-83744047D01*
X65673690Y-83696428D01*
X65911785Y-83696428D01*
X66007023Y-83648809D01*
X66435595Y-84029761D02*
X66530833Y-84077380D01*
X66721309Y-84077380D01*
X66816547Y-84029761D01*
X66864166Y-83934523D01*
X66864166Y-83886904D01*
X66816547Y-83791666D01*
X66721309Y-83744047D01*
X66578452Y-83744047D01*
X66483214Y-83696428D01*
X66435595Y-83601190D01*
X66435595Y-83553571D01*
X66483214Y-83458333D01*
X66578452Y-83410714D01*
X66721309Y-83410714D01*
X66816547Y-83458333D01*
X67435595Y-84077380D02*
X67340357Y-84029761D01*
X67292738Y-83982142D01*
X67245119Y-83886904D01*
X67245119Y-83601190D01*
X67292738Y-83505952D01*
X67340357Y-83458333D01*
X67435595Y-83410714D01*
X67578452Y-83410714D01*
X67673690Y-83458333D01*
X67721309Y-83505952D01*
X67768928Y-83601190D01*
X67768928Y-83886904D01*
X67721309Y-83982142D01*
X67673690Y-84029761D01*
X67578452Y-84077380D01*
X67435595Y-84077380D01*
X68197500Y-83410714D02*
X68197500Y-84077380D01*
X68197500Y-83505952D02*
X68245119Y-83458333D01*
X68340357Y-83410714D01*
X68483214Y-83410714D01*
X68578452Y-83458333D01*
X68626071Y-83553571D01*
X68626071Y-84077380D01*
X69816547Y-83791666D02*
X70292738Y-83791666D01*
X69721309Y-84077380D02*
X70054642Y-83077380D01*
X70387976Y-84077380D01*
X70721309Y-84077380D02*
X70721309Y-83077380D01*
X71149880Y-84077380D02*
X71149880Y-83553571D01*
X71102261Y-83458333D01*
X71007023Y-83410714D01*
X70864166Y-83410714D01*
X70768928Y-83458333D01*
X70721309Y-83505952D01*
X71626071Y-83410714D02*
X71626071Y-84077380D01*
X71626071Y-83505952D02*
X71673690Y-83458333D01*
X71768928Y-83410714D01*
X71911785Y-83410714D01*
X72007023Y-83458333D01*
X72054642Y-83553571D01*
X72054642Y-84077380D01*
X72911785Y-84029761D02*
X72816547Y-84077380D01*
X72626071Y-84077380D01*
X72530833Y-84029761D01*
X72483214Y-83934523D01*
X72483214Y-83553571D01*
X72530833Y-83458333D01*
X72626071Y-83410714D01*
X72816547Y-83410714D01*
X72911785Y-83458333D01*
X72959404Y-83553571D01*
X72959404Y-83648809D01*
X72483214Y-83744047D01*
X73387976Y-84077380D02*
X73387976Y-83410714D01*
X73387976Y-83601190D02*
X73435595Y-83505952D01*
X73483214Y-83458333D01*
X73578452Y-83410714D01*
X73673690Y-83410714D01*
X64721309Y-84727380D02*
X64721309Y-85441666D01*
X64673690Y-85584523D01*
X64578452Y-85679761D01*
X64435595Y-85727380D01*
X64340357Y-85727380D01*
X65626071Y-85727380D02*
X65626071Y-85203571D01*
X65578452Y-85108333D01*
X65483214Y-85060714D01*
X65292738Y-85060714D01*
X65197500Y-85108333D01*
X65626071Y-85679761D02*
X65530833Y-85727380D01*
X65292738Y-85727380D01*
X65197500Y-85679761D01*
X65149880Y-85584523D01*
X65149880Y-85489285D01*
X65197500Y-85394047D01*
X65292738Y-85346428D01*
X65530833Y-85346428D01*
X65626071Y-85298809D01*
X66102261Y-85727380D02*
X66102261Y-85060714D01*
X66102261Y-85251190D02*
X66149880Y-85155952D01*
X66197500Y-85108333D01*
X66292738Y-85060714D01*
X66387976Y-85060714D01*
X67102261Y-85679761D02*
X67007023Y-85727380D01*
X66816547Y-85727380D01*
X66721309Y-85679761D01*
X66673690Y-85584523D01*
X66673690Y-85203571D01*
X66721309Y-85108333D01*
X66816547Y-85060714D01*
X67007023Y-85060714D01*
X67102261Y-85108333D01*
X67149880Y-85203571D01*
X67149880Y-85298809D01*
X66673690Y-85394047D01*
X68007023Y-85727380D02*
X68007023Y-84727380D01*
X68007023Y-85679761D02*
X67911785Y-85727380D01*
X67721309Y-85727380D01*
X67626071Y-85679761D01*
X67578452Y-85632142D01*
X67530833Y-85536904D01*
X67530833Y-85251190D01*
X67578452Y-85155952D01*
X67626071Y-85108333D01*
X67721309Y-85060714D01*
X67911785Y-85060714D01*
X68007023Y-85108333D01*
X69578452Y-85203571D02*
X69721309Y-85251190D01*
X69768928Y-85298809D01*
X69816547Y-85394047D01*
X69816547Y-85536904D01*
X69768928Y-85632142D01*
X69721309Y-85679761D01*
X69626071Y-85727380D01*
X69245119Y-85727380D01*
X69245119Y-84727380D01*
X69578452Y-84727380D01*
X69673690Y-84775000D01*
X69721309Y-84822619D01*
X69768928Y-84917857D01*
X69768928Y-85013095D01*
X69721309Y-85108333D01*
X69673690Y-85155952D01*
X69578452Y-85203571D01*
X69245119Y-85203571D01*
X70626071Y-85679761D02*
X70530833Y-85727380D01*
X70340357Y-85727380D01*
X70245119Y-85679761D01*
X70197500Y-85584523D01*
X70197500Y-85203571D01*
X70245119Y-85108333D01*
X70340357Y-85060714D01*
X70530833Y-85060714D01*
X70626071Y-85108333D01*
X70673690Y-85203571D01*
X70673690Y-85298809D01*
X70197500Y-85394047D01*
X71245119Y-85727380D02*
X71149880Y-85679761D01*
X71102261Y-85584523D01*
X71102261Y-84727380D01*
X71768928Y-85727380D02*
X71673690Y-85679761D01*
X71626071Y-85584523D01*
X71626071Y-84727380D01*
X72530833Y-85679761D02*
X72435595Y-85727380D01*
X72245119Y-85727380D01*
X72149880Y-85679761D01*
X72102261Y-85584523D01*
X72102261Y-85203571D01*
X72149880Y-85108333D01*
X72245119Y-85060714D01*
X72435595Y-85060714D01*
X72530833Y-85108333D01*
X72578452Y-85203571D01*
X72578452Y-85298809D01*
X72102261Y-85394047D01*
X73007023Y-85727380D02*
X73007023Y-85060714D01*
X73007023Y-85251190D02*
X73054642Y-85155952D01*
X73102261Y-85108333D01*
X73197500Y-85060714D01*
X73292738Y-85060714D01*
X64721309Y-86377380D02*
X64721309Y-87091666D01*
X64673690Y-87234523D01*
X64578452Y-87329761D01*
X64435595Y-87377380D01*
X64340357Y-87377380D01*
X65340357Y-87377380D02*
X65245119Y-87329761D01*
X65197500Y-87282142D01*
X65149880Y-87186904D01*
X65149880Y-86901190D01*
X65197500Y-86805952D01*
X65245119Y-86758333D01*
X65340357Y-86710714D01*
X65483214Y-86710714D01*
X65578452Y-86758333D01*
X65626071Y-86805952D01*
X65673690Y-86901190D01*
X65673690Y-87186904D01*
X65626071Y-87282142D01*
X65578452Y-87329761D01*
X65483214Y-87377380D01*
X65340357Y-87377380D01*
X66102261Y-87377380D02*
X66102261Y-86377380D01*
X66530833Y-87377380D02*
X66530833Y-86853571D01*
X66483214Y-86758333D01*
X66387976Y-86710714D01*
X66245119Y-86710714D01*
X66149880Y-86758333D01*
X66102261Y-86805952D01*
X67007023Y-86710714D02*
X67007023Y-87377380D01*
X67007023Y-86805952D02*
X67054642Y-86758333D01*
X67149880Y-86710714D01*
X67292738Y-86710714D01*
X67387976Y-86758333D01*
X67435595Y-86853571D01*
X67435595Y-87377380D01*
X69007023Y-86853571D02*
X68673690Y-86853571D01*
X68673690Y-87377380D02*
X68673690Y-86377380D01*
X69149880Y-86377380D01*
X69530833Y-87377380D02*
X69530833Y-86710714D01*
X69530833Y-86377380D02*
X69483214Y-86425000D01*
X69530833Y-86472619D01*
X69578452Y-86425000D01*
X69530833Y-86377380D01*
X69530833Y-86472619D01*
X70149880Y-87377380D02*
X70054642Y-87329761D01*
X70007023Y-87282142D01*
X69959404Y-87186904D01*
X69959404Y-86901190D01*
X70007023Y-86805952D01*
X70054642Y-86758333D01*
X70149880Y-86710714D01*
X70292738Y-86710714D01*
X70387976Y-86758333D01*
X70435595Y-86805952D01*
X70483214Y-86901190D01*
X70483214Y-87186904D01*
X70435595Y-87282142D01*
X70387976Y-87329761D01*
X70292738Y-87377380D01*
X70149880Y-87377380D01*
X70911785Y-87377380D02*
X70911785Y-86710714D01*
X70911785Y-86901190D02*
X70959404Y-86805952D01*
X71007023Y-86758333D01*
X71102261Y-86710714D01*
X71197500Y-86710714D01*
X71530833Y-87377380D02*
X71530833Y-86710714D01*
X71530833Y-86377380D02*
X71483214Y-86425000D01*
X71530833Y-86472619D01*
X71578452Y-86425000D01*
X71530833Y-86377380D01*
X71530833Y-86472619D01*
X72007023Y-86710714D02*
X72007023Y-87377380D01*
X72007023Y-86805952D02*
X72054642Y-86758333D01*
X72149880Y-86710714D01*
X72292738Y-86710714D01*
X72387976Y-86758333D01*
X72435595Y-86853571D01*
X72435595Y-87377380D01*
X72911785Y-87377380D02*
X72911785Y-86710714D01*
X72911785Y-86377380D02*
X72864166Y-86425000D01*
X72911785Y-86472619D01*
X72959404Y-86425000D01*
X72911785Y-86377380D01*
X72911785Y-86472619D01*
D11*
X77520316Y-126068253D02*
G75*
G02*
X88170000Y-126070000I5329684J29518253D01*
G01*
X247850000Y-96550000D02*
G75*
G03*
X247850000Y-96550000I-30000000J0D01*
G01*
D10*
X97397619Y-78502380D02*
X97064285Y-78026190D01*
X96826190Y-78502380D02*
X96826190Y-77502380D01*
X97207142Y-77502380D01*
X97302380Y-77550000D01*
X97350000Y-77597619D01*
X97397619Y-77692857D01*
X97397619Y-77835714D01*
X97350000Y-77930952D01*
X97302380Y-77978571D01*
X97207142Y-78026190D01*
X96826190Y-78026190D01*
X97826190Y-77978571D02*
X98159523Y-77978571D01*
X98302380Y-78502380D02*
X97826190Y-78502380D01*
X97826190Y-77502380D01*
X98302380Y-77502380D01*
X98683333Y-78454761D02*
X98826190Y-78502380D01*
X99064285Y-78502380D01*
X99159523Y-78454761D01*
X99207142Y-78407142D01*
X99254761Y-78311904D01*
X99254761Y-78216666D01*
X99207142Y-78121428D01*
X99159523Y-78073809D01*
X99064285Y-78026190D01*
X98873809Y-77978571D01*
X98778571Y-77930952D01*
X98730952Y-77883333D01*
X98683333Y-77788095D01*
X98683333Y-77692857D01*
X98730952Y-77597619D01*
X98778571Y-77550000D01*
X98873809Y-77502380D01*
X99111904Y-77502380D01*
X99254761Y-77550000D01*
X99683333Y-77978571D02*
X100016666Y-77978571D01*
X100159523Y-78502380D02*
X99683333Y-78502380D01*
X99683333Y-77502380D01*
X100159523Y-77502380D01*
X100445238Y-77502380D02*
X101016666Y-77502380D01*
X100730952Y-78502380D02*
X100730952Y-77502380D01*
D11*
X180350000Y-96550000D02*
G75*
G03*
X180350000Y-96550000I-30000000J0D01*
G01*
D12*
%TO.C,MK3*%
X129802251Y-81800000D02*
G75*
G03*
X129802251Y-81800000I-5000000J0D01*
G01*
%TO.C,MK2*%
X180897749Y-81800000D02*
G75*
G03*
X180897749Y-81800000I-5000000J0D01*
G01*
%TO.C,MK1*%
X155350000Y-126050000D02*
G75*
G03*
X155350000Y-126050000I-5000000J0D01*
G01*
D13*
%TO.C,J2*%
X243850000Y-100420000D02*
X242520000Y-100420000D01*
X242520000Y-100420000D02*
X242520000Y-99090000D01*
X242520000Y-97820000D02*
X242520000Y-92680000D01*
X245180000Y-92680000D02*
X242520000Y-92680000D01*
X245180000Y-97820000D02*
X245180000Y-92680000D01*
X245180000Y-97820000D02*
X242520000Y-97820000D01*
X108850000Y-100420000D02*
X107520000Y-100420000D01*
X107520000Y-100420000D02*
X107520000Y-99090000D01*
X107520000Y-97820000D02*
X107520000Y-92680000D01*
X110180000Y-92680000D02*
X107520000Y-92680000D01*
X110180000Y-97820000D02*
X110180000Y-92680000D01*
X110180000Y-97820000D02*
X107520000Y-97820000D01*
X176350000Y-100420000D02*
X175020000Y-100420000D01*
X175020000Y-100420000D02*
X175020000Y-99090000D01*
X175020000Y-97820000D02*
X175020000Y-92680000D01*
X177680000Y-92680000D02*
X175020000Y-92680000D01*
X177680000Y-97820000D02*
X177680000Y-92680000D01*
X177680000Y-97820000D02*
X175020000Y-97820000D01*
%TO.C,J3*%
X224260000Y-70550000D02*
X224260000Y-71880000D01*
X224260000Y-71880000D02*
X222930000Y-71880000D01*
X221660000Y-71880000D02*
X211440000Y-71880000D01*
X211440000Y-69220000D02*
X211440000Y-71880000D01*
X221660000Y-69220000D02*
X211440000Y-69220000D01*
X221660000Y-69220000D02*
X221660000Y-71880000D01*
X156760000Y-70550000D02*
X156760000Y-71880000D01*
X156760000Y-71880000D02*
X155430000Y-71880000D01*
X154160000Y-71880000D02*
X143940000Y-71880000D01*
X143940000Y-69220000D02*
X143940000Y-71880000D01*
X154160000Y-69220000D02*
X143940000Y-69220000D01*
X154160000Y-69220000D02*
X154160000Y-71880000D01*
X89260000Y-70550000D02*
X89260000Y-71880000D01*
X89260000Y-71880000D02*
X87930000Y-71880000D01*
X86660000Y-71880000D02*
X76440000Y-71880000D01*
X76440000Y-69220000D02*
X76440000Y-71880000D01*
X86660000Y-69220000D02*
X76440000Y-69220000D01*
X86660000Y-69220000D02*
X86660000Y-71880000D01*
%TO.C,J1*%
X56850000Y-99150000D02*
X55520000Y-99150000D01*
X55520000Y-99150000D02*
X55520000Y-97820000D01*
X55520000Y-96550000D02*
X55520000Y-93950000D01*
X58180000Y-93950000D02*
X55520000Y-93950000D01*
X58180000Y-96550000D02*
X58180000Y-93950000D01*
X58180000Y-96550000D02*
X55520000Y-96550000D01*
X191850000Y-99150000D02*
X190520000Y-99150000D01*
X190520000Y-99150000D02*
X190520000Y-97820000D01*
X190520000Y-96550000D02*
X190520000Y-93950000D01*
X193180000Y-93950000D02*
X190520000Y-93950000D01*
X193180000Y-96550000D02*
X193180000Y-93950000D01*
X193180000Y-96550000D02*
X190520000Y-96550000D01*
X124350000Y-99150000D02*
X123020000Y-99150000D01*
X123020000Y-99150000D02*
X123020000Y-97820000D01*
X123020000Y-96550000D02*
X123020000Y-93950000D01*
X125680000Y-93950000D02*
X123020000Y-93950000D01*
X125680000Y-96550000D02*
X125680000Y-93950000D01*
X125680000Y-96550000D02*
X123020000Y-96550000D01*
%TO.C,C14*%
X129335000Y-96811252D02*
X129335000Y-96288748D01*
X127865000Y-96811252D02*
X127865000Y-96288748D01*
%TO.C,U6*%
X212770000Y-91490000D02*
X210820000Y-91490000D01*
X212770000Y-91490000D02*
X214720000Y-91490000D01*
X212770000Y-101610000D02*
X210820000Y-101610000D01*
X212770000Y-101610000D02*
X216220000Y-101610000D01*
%TO.C,U5*%
X222930000Y-101610000D02*
X224880000Y-101610000D01*
X222930000Y-101610000D02*
X220980000Y-101610000D01*
X222930000Y-91490000D02*
X224880000Y-91490000D01*
X222930000Y-91490000D02*
X219480000Y-91490000D01*
%TO.C,C34*%
X221690580Y-102240000D02*
X221409420Y-102240000D01*
X221690580Y-103260000D02*
X221409420Y-103260000D01*
%TO.C,C33*%
X214009420Y-103260000D02*
X214290580Y-103260000D01*
X214009420Y-102240000D02*
X214290580Y-102240000D01*
%TO.C,R4*%
X90672500Y-102387258D02*
X90672500Y-101912742D01*
X89627500Y-102387258D02*
X89627500Y-101912742D01*
%TO.C,R3*%
X93127500Y-100162742D02*
X93127500Y-100637258D01*
X94172500Y-100162742D02*
X94172500Y-100637258D01*
%TO.C,J4*%
X78150000Y-129200000D02*
X87550000Y-129200000D01*
X87550000Y-123400000D02*
X87550000Y-125400000D01*
X87550000Y-127300000D02*
X87550000Y-129200000D01*
X78150000Y-123400000D02*
X78150000Y-125400000D01*
X78150000Y-127300000D02*
X78150000Y-129200000D01*
D10*
%TO.C,U2*%
X82690901Y-91582575D02*
X81683274Y-90574948D01*
X87976524Y-96550000D02*
X87746714Y-96320190D01*
X82850000Y-101676524D02*
X82620190Y-101446714D01*
X77723476Y-96550000D02*
X77953286Y-96779810D01*
X82850000Y-91423476D02*
X83079810Y-91653286D01*
X77723476Y-96550000D02*
X77953286Y-96320190D01*
X82850000Y-101676524D02*
X83079810Y-101446714D01*
X87976524Y-96550000D02*
X87746714Y-96779810D01*
X82850000Y-91423476D02*
X82690901Y-91582575D01*
D13*
%TO.C,U1*%
X96600000Y-102240000D02*
X93150000Y-102240000D01*
X96600000Y-102240000D02*
X98550000Y-102240000D01*
X96600000Y-112360000D02*
X94650000Y-112360000D01*
X96600000Y-112360000D02*
X98550000Y-112360000D01*
%TO.C,SW1*%
X97400000Y-78830000D02*
X96910000Y-79320000D01*
X100300000Y-78830000D02*
X97400000Y-78830000D01*
X100300000Y-78830000D02*
X100790000Y-79320000D01*
X100300000Y-84270000D02*
X97400000Y-84270000D01*
X100300000Y-84270000D02*
X100790000Y-83780000D01*
X96130000Y-80510000D02*
X96130000Y-82590000D01*
X97400000Y-84270000D02*
X96910000Y-83780000D01*
X101570000Y-80510000D02*
X101570000Y-82590000D01*
%TO.C,R6*%
X97577064Y-85140000D02*
X96122936Y-85140000D01*
X97577064Y-86960000D02*
X96122936Y-86960000D01*
%TO.C,R5*%
X75327500Y-96312742D02*
X75327500Y-96787258D01*
X76372500Y-96312742D02*
X76372500Y-96787258D01*
%TO.C,R2*%
X84327500Y-117812742D02*
X84327500Y-118287258D01*
X85372500Y-117812742D02*
X85372500Y-118287258D01*
%TO.C,R1*%
X82372500Y-118287258D02*
X82372500Y-117812742D01*
X81327500Y-118287258D02*
X81327500Y-117812742D01*
%TO.C,L1*%
X85040000Y-106100378D02*
X85040000Y-106899622D01*
X86160000Y-106100378D02*
X86160000Y-106899622D01*
%TO.C,J5*%
X68930000Y-114880000D02*
X67600000Y-114880000D01*
X68930000Y-113550000D02*
X68930000Y-114880000D01*
X66330000Y-114880000D02*
X63730000Y-114880000D01*
X66330000Y-112280000D02*
X66330000Y-114880000D01*
X68930000Y-112280000D02*
X66330000Y-112280000D01*
X63730000Y-114880000D02*
X63730000Y-107140000D01*
X68930000Y-112280000D02*
X68930000Y-107140000D01*
X68930000Y-107140000D02*
X63730000Y-107140000D01*
%TO.C,F1*%
X78440000Y-116197936D02*
X78440000Y-117402064D01*
X80260000Y-116197936D02*
X80260000Y-117402064D01*
%TO.C,C10*%
X69340000Y-95909420D02*
X69340000Y-96190580D01*
X70360000Y-95909420D02*
X70360000Y-96190580D01*
%TO.C,C9*%
X70209420Y-94060000D02*
X70490580Y-94060000D01*
X70209420Y-93040000D02*
X70490580Y-93040000D01*
%TO.C,C8*%
X73490580Y-94060000D02*
X73209420Y-94060000D01*
X73490580Y-93040000D02*
X73209420Y-93040000D01*
%TO.C,C7*%
X85509420Y-104310000D02*
X85790580Y-104310000D01*
X85509420Y-103290000D02*
X85790580Y-103290000D01*
%TO.C,C6*%
X87090000Y-106559420D02*
X87090000Y-106840580D01*
X88110000Y-106559420D02*
X88110000Y-106840580D01*
%TO.C,C5*%
X92410000Y-102290580D02*
X92410000Y-102009420D01*
X91390000Y-102290580D02*
X91390000Y-102009420D01*
%TO.C,C4*%
X96740580Y-100690000D02*
X96459420Y-100690000D01*
X96740580Y-101710000D02*
X96459420Y-101710000D01*
%TO.C,C3*%
X94590000Y-114409420D02*
X94590000Y-114690580D01*
X95610000Y-114409420D02*
X95610000Y-114690580D01*
%TO.C,C2*%
X90490580Y-106890000D02*
X90209420Y-106890000D01*
X90490580Y-107910000D02*
X90209420Y-107910000D01*
%TO.C,C1*%
X91509420Y-117660000D02*
X91790580Y-117660000D01*
X91509420Y-116640000D02*
X91790580Y-116640000D01*
%TO.C,C11*%
X145260000Y-103490580D02*
X145260000Y-103209420D01*
X144240000Y-103490580D02*
X144240000Y-103209420D01*
%TO.C,R8*%
X131837258Y-95572500D02*
X131362742Y-95572500D01*
X131837258Y-94527500D02*
X131362742Y-94527500D01*
%TO.C,R7*%
X133577500Y-96037258D02*
X133577500Y-95562742D01*
X134622500Y-96037258D02*
X134622500Y-95562742D01*
%TO.C,C13*%
X128400000Y-93485000D02*
X132310000Y-93485000D01*
X132310000Y-93485000D02*
X132310000Y-91615000D01*
X132310000Y-91615000D02*
X128400000Y-91615000D01*
%TO.C,R35*%
X133622500Y-85812742D02*
X133622500Y-86287258D01*
X132577500Y-85812742D02*
X132577500Y-86287258D01*
%TO.C,R34*%
X138512258Y-89572500D02*
X138037742Y-89572500D01*
X138512258Y-88527500D02*
X138037742Y-88527500D01*
%TO.C,R33*%
X138262258Y-93572500D02*
X137787742Y-93572500D01*
X138262258Y-92527500D02*
X137787742Y-92527500D01*
%TO.C,R32*%
X144262258Y-94072500D02*
X143787742Y-94072500D01*
X144262258Y-93027500D02*
X143787742Y-93027500D01*
%TO.C,R31*%
X143512258Y-96322500D02*
X143037742Y-96322500D01*
X143512258Y-95277500D02*
X143037742Y-95277500D01*
%TO.C,R30*%
X130827500Y-86287258D02*
X130827500Y-85812742D01*
X131872500Y-86287258D02*
X131872500Y-85812742D01*
%TO.C,R29*%
X143037742Y-98777500D02*
X143512258Y-98777500D01*
X143037742Y-99822500D02*
X143512258Y-99822500D01*
%TO.C,R28*%
X136787742Y-97527500D02*
X137262258Y-97527500D01*
X136787742Y-98572500D02*
X137262258Y-98572500D01*
%TO.C,R27*%
X147262258Y-96072500D02*
X146787742Y-96072500D01*
X147262258Y-95027500D02*
X146787742Y-95027500D01*
%TO.C,D3*%
X136350000Y-84550000D02*
X134350000Y-84550000D01*
X134350000Y-84550000D02*
X134350000Y-88450000D01*
X136350000Y-84550000D02*
X136350000Y-88450000D01*
%TO.C,C32*%
X141665000Y-77950000D02*
X141665000Y-81860000D01*
X141665000Y-81860000D02*
X143535000Y-81860000D01*
X143535000Y-81860000D02*
X143535000Y-77950000D01*
%TO.C,C31*%
X139400000Y-91985000D02*
X143310000Y-91985000D01*
X143310000Y-91985000D02*
X143310000Y-90115000D01*
X143310000Y-90115000D02*
X139400000Y-90115000D01*
%TO.C,C30*%
X143184420Y-97040000D02*
X143465580Y-97040000D01*
X143184420Y-98060000D02*
X143465580Y-98060000D01*
%TO.C,C29*%
X138750000Y-87985000D02*
X142660000Y-87985000D01*
X142660000Y-87985000D02*
X142660000Y-86115000D01*
X142660000Y-86115000D02*
X138750000Y-86115000D01*
%TO.C,C28*%
X141110000Y-97909420D02*
X141110000Y-98190580D01*
X140090000Y-97909420D02*
X140090000Y-98190580D01*
%TO.C,C27*%
X147240580Y-97810000D02*
X146959420Y-97810000D01*
X147240580Y-96790000D02*
X146959420Y-96790000D01*
%TO.C,U4*%
X145915000Y-90800000D02*
X145915000Y-94250000D01*
X145915000Y-90800000D02*
X145915000Y-88850000D01*
X154785000Y-90800000D02*
X154785000Y-92750000D01*
X154785000Y-90800000D02*
X154785000Y-88850000D01*
%TO.C,R26*%
X158262258Y-88322500D02*
X157787742Y-88322500D01*
X158262258Y-87277500D02*
X157787742Y-87277500D01*
%TO.C,R25*%
X149122500Y-79987742D02*
X149122500Y-80462258D01*
X148077500Y-79987742D02*
X148077500Y-80462258D01*
%TO.C,R24*%
X151262258Y-81322500D02*
X150787742Y-81322500D01*
X151262258Y-80277500D02*
X150787742Y-80277500D01*
%TO.C,R23*%
X144827500Y-79362258D02*
X144827500Y-78887742D01*
X145872500Y-79362258D02*
X145872500Y-78887742D01*
%TO.C,R22*%
X154122500Y-81137742D02*
X154122500Y-81612258D01*
X153077500Y-81137742D02*
X153077500Y-81612258D01*
%TO.C,R21*%
X157827500Y-91037258D02*
X157827500Y-90562742D01*
X158872500Y-91037258D02*
X158872500Y-90562742D01*
%TO.C,R20*%
X154837258Y-86072500D02*
X154362742Y-86072500D01*
X154837258Y-85027500D02*
X154362742Y-85027500D01*
%TO.C,R19*%
X157622500Y-94562742D02*
X157622500Y-95037258D01*
X156577500Y-94562742D02*
X156577500Y-95037258D01*
%TO.C,R18*%
X146162258Y-84022500D02*
X145687742Y-84022500D01*
X146162258Y-82977500D02*
X145687742Y-82977500D01*
%TO.C,D2*%
X162100000Y-89700000D02*
X160100000Y-89700000D01*
X160100000Y-89700000D02*
X160100000Y-93600000D01*
X162100000Y-89700000D02*
X162100000Y-93600000D01*
%TO.C,C26*%
X160450000Y-84865000D02*
X156540000Y-84865000D01*
X156540000Y-84865000D02*
X156540000Y-86735000D01*
X156540000Y-86735000D02*
X160450000Y-86735000D01*
%TO.C,C25*%
X153850000Y-77365000D02*
X149940000Y-77365000D01*
X149940000Y-77365000D02*
X149940000Y-79235000D01*
X149940000Y-79235000D02*
X153850000Y-79235000D01*
%TO.C,C24*%
X152684420Y-83290000D02*
X152965580Y-83290000D01*
X152684420Y-84310000D02*
X152965580Y-84310000D01*
%TO.C,C23*%
X150440000Y-96685000D02*
X154350000Y-96685000D01*
X150440000Y-94815000D02*
X150440000Y-96685000D01*
X154350000Y-94815000D02*
X150440000Y-94815000D01*
%TO.C,C22*%
X154840000Y-82934420D02*
X154840000Y-83215580D01*
X155860000Y-82934420D02*
X155860000Y-83215580D01*
%TO.C,C21*%
X146115580Y-82260000D02*
X145834420Y-82260000D01*
X146115580Y-81240000D02*
X145834420Y-81240000D01*
%TO.C,R17*%
X158122500Y-110312742D02*
X158122500Y-110787258D01*
X157077500Y-110312742D02*
X157077500Y-110787258D01*
%TO.C,R16*%
X154037742Y-113527500D02*
X154512258Y-113527500D01*
X154037742Y-114572500D02*
X154512258Y-114572500D01*
%TO.C,R15*%
X154337258Y-118072500D02*
X153862742Y-118072500D01*
X154337258Y-117027500D02*
X153862742Y-117027500D01*
%TO.C,R14*%
X146862742Y-113277500D02*
X147337258Y-113277500D01*
X146862742Y-114322500D02*
X147337258Y-114322500D01*
%TO.C,R13*%
X153862742Y-115277500D02*
X154337258Y-115277500D01*
X153862742Y-116322500D02*
X154337258Y-116322500D01*
%TO.C,R12*%
X152037742Y-109027500D02*
X152512258Y-109027500D01*
X152037742Y-110072500D02*
X152512258Y-110072500D01*
%TO.C,R11*%
X153762258Y-108072500D02*
X153287742Y-108072500D01*
X153762258Y-107027500D02*
X153287742Y-107027500D01*
%TO.C,R10*%
X150122500Y-108387742D02*
X150122500Y-108862258D01*
X149077500Y-108387742D02*
X149077500Y-108862258D01*
%TO.C,R9*%
X147262258Y-108322500D02*
X146787742Y-108322500D01*
X147262258Y-107277500D02*
X146787742Y-107277500D01*
%TO.C,D1*%
X151850000Y-110800000D02*
X151850000Y-112800000D01*
X151850000Y-112800000D02*
X155750000Y-112800000D01*
X151850000Y-110800000D02*
X155750000Y-110800000D01*
%TO.C,C20*%
X161600000Y-104365000D02*
X157690000Y-104365000D01*
X157690000Y-104365000D02*
X157690000Y-106235000D01*
X157690000Y-106235000D02*
X161600000Y-106235000D01*
%TO.C,C19*%
X151700000Y-115115000D02*
X147790000Y-115115000D01*
X147790000Y-115115000D02*
X147790000Y-116985000D01*
X147790000Y-116985000D02*
X151700000Y-116985000D01*
%TO.C,C18*%
X159240580Y-108560000D02*
X158959420Y-108560000D01*
X159240580Y-107540000D02*
X158959420Y-107540000D01*
%TO.C,C17*%
X149600000Y-110615000D02*
X145690000Y-110615000D01*
X145690000Y-110615000D02*
X145690000Y-112485000D01*
X145690000Y-112485000D02*
X149600000Y-112485000D01*
%TO.C,C16*%
X157715580Y-115310000D02*
X157434420Y-115310000D01*
X157715580Y-114290000D02*
X157434420Y-114290000D01*
%TO.C,C15*%
X147240580Y-110060000D02*
X146959420Y-110060000D01*
X147240580Y-109040000D02*
X146959420Y-109040000D01*
%TO.C,U3*%
X145915000Y-102800000D02*
X145915000Y-106250000D01*
X145915000Y-102800000D02*
X145915000Y-100850000D01*
X154785000Y-102800000D02*
X154785000Y-104750000D01*
X154785000Y-102800000D02*
X154785000Y-100850000D01*
%TO.C,C12*%
X156760000Y-90940580D02*
X156760000Y-90659420D01*
X155740000Y-90940580D02*
X155740000Y-90659420D01*
%TO.C,D8*%
X228106993Y-115277038D02*
G75*
G03*
X228106993Y-115277038I-2500000J0D01*
G01*
X226054717Y-112320661D02*
X223199929Y-113503152D01*
X226751643Y-118039261D02*
G75*
G02*
X223200087Y-113503087I-1144650J2762223D01*
G01*
X226750790Y-118039613D02*
G75*
G03*
X226054560Y-112320726I-1143797J2762575D01*
G01*
%TO.C,D7*%
X234683055Y-110883055D02*
G75*
G03*
X234683055Y-110883055I-2500000J0D01*
G01*
X231465341Y-107980381D02*
X229280381Y-110165341D01*
X234297631Y-112996979D02*
G75*
G02*
X229280501Y-110165221I-2114576J2113924D01*
G01*
X234296979Y-112997631D02*
G75*
G03*
X231465221Y-107980501I-2113924J2114576D01*
G01*
%TO.C,D3*%
X234683055Y-82216945D02*
G75*
G03*
X234683055Y-82216945I-2500000J0D01*
G01*
X229280381Y-82934659D02*
X231465341Y-85119619D01*
X234296979Y-80102369D02*
G75*
G02*
X231465221Y-85119499I-2113924J-2114576D01*
G01*
X234297631Y-80103021D02*
G75*
G03*
X229280501Y-82934779I-2114576J-2113924D01*
G01*
%TO.C,R51*%
X213622500Y-83562742D02*
X213622500Y-84037258D01*
X212577500Y-83562742D02*
X212577500Y-84037258D01*
%TO.C,R50*%
X209372500Y-86562742D02*
X209372500Y-87037258D01*
X208327500Y-86562742D02*
X208327500Y-87037258D01*
%TO.C,R49*%
X205612742Y-90277500D02*
X206087258Y-90277500D01*
X205612742Y-91322500D02*
X206087258Y-91322500D01*
%TO.C,R48*%
X204112742Y-95777500D02*
X204587258Y-95777500D01*
X204112742Y-96822500D02*
X204587258Y-96822500D01*
%TO.C,R47*%
X205862742Y-102377500D02*
X206337258Y-102377500D01*
X205862742Y-103422500D02*
X206337258Y-103422500D01*
%TO.C,R46*%
X209112742Y-106277500D02*
X209587258Y-106277500D01*
X209112742Y-107322500D02*
X209587258Y-107322500D01*
%TO.C,R45*%
X213517500Y-109787258D02*
X213517500Y-109312742D01*
X214562500Y-109787258D02*
X214562500Y-109312742D01*
%TO.C,R44*%
X218577500Y-110287258D02*
X218577500Y-109812742D01*
X219622500Y-110287258D02*
X219622500Y-109812742D01*
%TO.C,R43*%
X223577500Y-108787258D02*
X223577500Y-108312742D01*
X224622500Y-108787258D02*
X224622500Y-108312742D01*
%TO.C,R42*%
X228337258Y-105822500D02*
X227862742Y-105822500D01*
X228337258Y-104777500D02*
X227862742Y-104777500D01*
%TO.C,R41*%
X230587258Y-101822500D02*
X230112742Y-101822500D01*
X230587258Y-100777500D02*
X230112742Y-100777500D01*
%TO.C,R40*%
X231587258Y-97072500D02*
X231112742Y-97072500D01*
X231587258Y-96027500D02*
X231112742Y-96027500D01*
%TO.C,R39*%
X230587258Y-91992500D02*
X230112742Y-91992500D01*
X230587258Y-90947500D02*
X230112742Y-90947500D01*
%TO.C,R38*%
X227837258Y-87572500D02*
X227362742Y-87572500D01*
X227837258Y-86527500D02*
X227362742Y-86527500D01*
%TO.C,R37*%
X224122500Y-84062742D02*
X224122500Y-84537258D01*
X223077500Y-84062742D02*
X223077500Y-84537258D01*
%TO.C,R36*%
X218872500Y-82812742D02*
X218872500Y-83287258D01*
X217827500Y-82812742D02*
X217827500Y-83287258D01*
%TO.C,D16*%
X212593007Y-77822962D02*
G75*
G03*
X212593007Y-77822962I-2500000J0D01*
G01*
X209645283Y-80779339D02*
X212500071Y-79596848D01*
X208948357Y-75060739D02*
G75*
G02*
X212499913Y-79596913I1144650J-2762223D01*
G01*
X208949210Y-75060387D02*
G75*
G03*
X209645440Y-80779274I1143797J-2762575D01*
G01*
%TO.C,D15*%
X206016945Y-82216945D02*
G75*
G03*
X206016945Y-82216945I-2500000J0D01*
G01*
X204234659Y-85119619D02*
X206419619Y-82934659D01*
X201402369Y-80103021D02*
G75*
G02*
X206419499Y-82934779I2114576J-2113924D01*
G01*
X201403021Y-80102369D02*
G75*
G03*
X204234779Y-85119499I2113924J-2114576D01*
G01*
%TO.C,D14*%
X201622962Y-88793007D02*
G75*
G03*
X201622962Y-88793007I-2500000J0D01*
G01*
X200896848Y-91200071D02*
X202079339Y-88345283D01*
X196360387Y-87649210D02*
G75*
G02*
X202079274Y-88345440I2762575J-1143797D01*
G01*
X196360739Y-87648357D02*
G75*
G03*
X200896913Y-91199913I2762223J-1144650D01*
G01*
%TO.C,D13*%
X200080000Y-96550000D02*
G75*
G03*
X200080000Y-96550000I-2500000J0D01*
G01*
X200140000Y-98095000D02*
X200140000Y-95005000D01*
X194590000Y-96550462D02*
G75*
G02*
X200140000Y-95005170I2990000J462D01*
G01*
X194590000Y-96549538D02*
G75*
G03*
X200140000Y-98094830I2990000J-462D01*
G01*
%TO.C,D12*%
X201622962Y-104306993D02*
G75*
G03*
X201622962Y-104306993I-2500000J0D01*
G01*
X202079339Y-104754717D02*
X200896848Y-101899929D01*
X196360739Y-105451643D02*
G75*
G02*
X200896913Y-101900087I2762223J1144650D01*
G01*
X196360387Y-105450790D02*
G75*
G03*
X202079274Y-104754560I2762575J1143797D01*
G01*
%TO.C,D11*%
X206016945Y-110883055D02*
G75*
G03*
X206016945Y-110883055I-2500000J0D01*
G01*
X206419619Y-110165341D02*
X204234659Y-107980381D01*
X201403021Y-112997631D02*
G75*
G02*
X204234779Y-107980501I2113924J2114576D01*
G01*
X201402369Y-112996979D02*
G75*
G03*
X206419499Y-110165221I2114576J2113924D01*
G01*
%TO.C,D10*%
X212593007Y-115277038D02*
G75*
G03*
X212593007Y-115277038I-2500000J0D01*
G01*
X212500071Y-113503152D02*
X209645283Y-112320661D01*
X208949210Y-118039613D02*
G75*
G02*
X209645440Y-112320726I1143797J2762575D01*
G01*
X208948357Y-118039261D02*
G75*
G03*
X212499913Y-113503087I1144650J2762223D01*
G01*
%TO.C,D9*%
X220350000Y-116820000D02*
G75*
G03*
X220350000Y-116820000I-2500000J0D01*
G01*
X219395000Y-114260000D02*
X216305000Y-114260000D01*
X217850462Y-119810000D02*
G75*
G02*
X216305170Y-114260000I-462J2990000D01*
G01*
X217849538Y-119810000D02*
G75*
G03*
X219394830Y-114260000I462J2990000D01*
G01*
%TO.C,D6*%
X239077038Y-104306993D02*
G75*
G03*
X239077038Y-104306993I-2500000J0D01*
G01*
X234803152Y-101899929D02*
X233620661Y-104754717D01*
X239339613Y-105450790D02*
G75*
G02*
X233620726Y-104754560I-2762575J1143797D01*
G01*
X239339261Y-105451643D02*
G75*
G03*
X234803087Y-101900087I-2762223J1144650D01*
G01*
%TO.C,D5*%
X240620000Y-96550000D02*
G75*
G03*
X240620000Y-96550000I-2500000J0D01*
G01*
X235560000Y-95005000D02*
X235560000Y-98095000D01*
X241110000Y-96549538D02*
G75*
G02*
X235560000Y-98094830I-2990000J-462D01*
G01*
X241110000Y-96550462D02*
G75*
G03*
X235560000Y-95005170I-2990000J462D01*
G01*
%TO.C,D4*%
X239077038Y-88793007D02*
G75*
G03*
X239077038Y-88793007I-2500000J0D01*
G01*
X233620661Y-88345283D02*
X234803152Y-91200071D01*
X239339261Y-87648357D02*
G75*
G02*
X234803087Y-91199913I-2762223J-1144650D01*
G01*
X239339613Y-87649210D02*
G75*
G03*
X233620726Y-88345440I-2762575J-1143797D01*
G01*
%TO.C,D2*%
X228106993Y-77822962D02*
G75*
G03*
X228106993Y-77822962I-2500000J0D01*
G01*
X223199929Y-79596848D02*
X226054717Y-80779339D01*
X226750790Y-75060387D02*
G75*
G02*
X226054560Y-80779274I-1143797J-2762575D01*
G01*
X226751643Y-75060739D02*
G75*
G03*
X223200087Y-79596913I-1144650J-2762223D01*
G01*
%TO.C,D1*%
X220350000Y-76280000D02*
G75*
G03*
X220350000Y-76280000I-2500000J0D01*
G01*
X216305000Y-78840000D02*
X219395000Y-78840000D01*
X217849538Y-73290000D02*
G75*
G02*
X219394830Y-78840000I462J-2990000D01*
G01*
X217850462Y-73290000D02*
G75*
G03*
X216305170Y-78840000I-462J-2990000D01*
G01*
%TO.C,MK3*%
D10*
X124842371Y-83335271D02*
X123976346Y-82835271D01*
X124761602Y-82903739D01*
X124309679Y-82257921D01*
X125175704Y-82757921D01*
X125413800Y-82345528D02*
X124547774Y-81845528D01*
X125699514Y-81850656D02*
X124990356Y-81936095D01*
X124833488Y-81350656D02*
X125042646Y-82131242D01*
X125000155Y-81061981D02*
X125309679Y-80525870D01*
X125472927Y-81005021D01*
X125544355Y-80881303D01*
X125633214Y-80822634D01*
X125698262Y-80805204D01*
X125804551Y-80811584D01*
X126010747Y-80930632D01*
X126069416Y-81019490D01*
X126086846Y-81084539D01*
X126080466Y-81190827D01*
X125937609Y-81438263D01*
X125848751Y-81496932D01*
X125783702Y-81514362D01*
%TO.C,MK2*%
X174548104Y-81067109D02*
X175414130Y-80567109D01*
X174962207Y-81212927D01*
X175747463Y-81144459D01*
X174881438Y-81644459D01*
X175119533Y-82056852D02*
X175985558Y-81556852D01*
X175405247Y-82551724D02*
X175685833Y-81894856D01*
X176271272Y-82051724D02*
X175490687Y-81842567D01*
X176379270Y-82429258D02*
X176444319Y-82446687D01*
X176533177Y-82505356D01*
X176652225Y-82711553D01*
X176658605Y-82817841D01*
X176641175Y-82882890D01*
X176582506Y-82971748D01*
X176500027Y-83019367D01*
X176352500Y-83049557D01*
X175571914Y-82840399D01*
X175881438Y-83376510D01*
%TO.C,MK1*%
X149040476Y-126252380D02*
X149040476Y-125252380D01*
X149373809Y-125966666D01*
X149707142Y-125252380D01*
X149707142Y-126252380D01*
X150183333Y-126252380D02*
X150183333Y-125252380D01*
X150754761Y-126252380D02*
X150326190Y-125680952D01*
X150754761Y-125252380D02*
X150183333Y-125823809D01*
X151707142Y-126252380D02*
X151135714Y-126252380D01*
X151421428Y-126252380D02*
X151421428Y-125252380D01*
X151326190Y-125395238D01*
X151230952Y-125490476D01*
X151135714Y-125538095D01*
%TO.C,J2*%
X108516666Y-101312380D02*
X108516666Y-102026666D01*
X108469047Y-102169523D01*
X108373809Y-102264761D01*
X108230952Y-102312380D01*
X108135714Y-102312380D01*
X108945238Y-101407619D02*
X108992857Y-101360000D01*
X109088095Y-101312380D01*
X109326190Y-101312380D01*
X109421428Y-101360000D01*
X109469047Y-101407619D01*
X109516666Y-101502857D01*
X109516666Y-101598095D01*
X109469047Y-101740952D01*
X108897619Y-102312380D01*
X109516666Y-102312380D01*
X176016666Y-101312380D02*
X176016666Y-102026666D01*
X175969047Y-102169523D01*
X175873809Y-102264761D01*
X175730952Y-102312380D01*
X175635714Y-102312380D01*
X176445238Y-101407619D02*
X176492857Y-101360000D01*
X176588095Y-101312380D01*
X176826190Y-101312380D01*
X176921428Y-101360000D01*
X176969047Y-101407619D01*
X177016666Y-101502857D01*
X177016666Y-101598095D01*
X176969047Y-101740952D01*
X176397619Y-102312380D01*
X177016666Y-102312380D01*
%TO.C,J3*%
X158016666Y-70002380D02*
X158016666Y-70716666D01*
X157969047Y-70859523D01*
X157873809Y-70954761D01*
X157730952Y-71002380D01*
X157635714Y-71002380D01*
X158397619Y-70002380D02*
X159016666Y-70002380D01*
X158683333Y-70383333D01*
X158826190Y-70383333D01*
X158921428Y-70430952D01*
X158969047Y-70478571D01*
X159016666Y-70573809D01*
X159016666Y-70811904D01*
X158969047Y-70907142D01*
X158921428Y-70954761D01*
X158826190Y-71002380D01*
X158540476Y-71002380D01*
X158445238Y-70954761D01*
X158397619Y-70907142D01*
X82516666Y-67402380D02*
X82516666Y-68116666D01*
X82469047Y-68259523D01*
X82373809Y-68354761D01*
X82230952Y-68402380D01*
X82135714Y-68402380D01*
X82897619Y-67402380D02*
X83516666Y-67402380D01*
X83183333Y-67783333D01*
X83326190Y-67783333D01*
X83421428Y-67830952D01*
X83469047Y-67878571D01*
X83516666Y-67973809D01*
X83516666Y-68211904D01*
X83469047Y-68307142D01*
X83421428Y-68354761D01*
X83326190Y-68402380D01*
X83040476Y-68402380D01*
X82945238Y-68354761D01*
X82897619Y-68307142D01*
%TO.C,J1*%
X56516666Y-100042380D02*
X56516666Y-100756666D01*
X56469047Y-100899523D01*
X56373809Y-100994761D01*
X56230952Y-101042380D01*
X56135714Y-101042380D01*
X57516666Y-101042380D02*
X56945238Y-101042380D01*
X57230952Y-101042380D02*
X57230952Y-100042380D01*
X57135714Y-100185238D01*
X57040476Y-100280476D01*
X56945238Y-100328095D01*
X124016666Y-100042380D02*
X124016666Y-100756666D01*
X123969047Y-100899523D01*
X123873809Y-100994761D01*
X123730952Y-101042380D01*
X123635714Y-101042380D01*
X125016666Y-101042380D02*
X124445238Y-101042380D01*
X124730952Y-101042380D02*
X124730952Y-100042380D01*
X124635714Y-100185238D01*
X124540476Y-100280476D01*
X124445238Y-100328095D01*
%TO.C,U2*%
X82088095Y-96002380D02*
X82088095Y-96811904D01*
X82135714Y-96907142D01*
X82183333Y-96954761D01*
X82278571Y-97002380D01*
X82469047Y-97002380D01*
X82564285Y-96954761D01*
X82611904Y-96907142D01*
X82659523Y-96811904D01*
X82659523Y-96002380D01*
X83088095Y-96097619D02*
X83135714Y-96050000D01*
X83230952Y-96002380D01*
X83469047Y-96002380D01*
X83564285Y-96050000D01*
X83611904Y-96097619D01*
X83659523Y-96192857D01*
X83659523Y-96288095D01*
X83611904Y-96430952D01*
X83040476Y-97002380D01*
X83659523Y-97002380D01*
%TO.C,J5*%
X64853809Y-106592380D02*
X64853809Y-105592380D01*
X65901428Y-106497142D02*
X65853809Y-106544761D01*
X65710952Y-106592380D01*
X65615714Y-106592380D01*
X65472857Y-106544761D01*
X65377619Y-106449523D01*
X65330000Y-106354285D01*
X65282380Y-106163809D01*
X65282380Y-106020952D01*
X65330000Y-105830476D01*
X65377619Y-105735238D01*
X65472857Y-105640000D01*
X65615714Y-105592380D01*
X65710952Y-105592380D01*
X65853809Y-105640000D01*
X65901428Y-105687619D01*
X66282380Y-106544761D02*
X66425238Y-106592380D01*
X66663333Y-106592380D01*
X66758571Y-106544761D01*
X66806190Y-106497142D01*
X66853809Y-106401904D01*
X66853809Y-106306666D01*
X66806190Y-106211428D01*
X66758571Y-106163809D01*
X66663333Y-106116190D01*
X66472857Y-106068571D01*
X66377619Y-106020952D01*
X66330000Y-105973333D01*
X66282380Y-105878095D01*
X66282380Y-105782857D01*
X66330000Y-105687619D01*
X66377619Y-105640000D01*
X66472857Y-105592380D01*
X66710952Y-105592380D01*
X66853809Y-105640000D01*
X67282380Y-106592380D02*
X67282380Y-105592380D01*
X67663333Y-105592380D01*
X67758571Y-105640000D01*
X67806190Y-105687619D01*
X67853809Y-105782857D01*
X67853809Y-105925714D01*
X67806190Y-106020952D01*
X67758571Y-106068571D01*
X67663333Y-106116190D01*
X67282380Y-106116190D01*
%TD*%
M02*
