M48
; DRILL file {KiCad (5.1.8)-1} date 05/29/21 17:15:18
; FORMAT={-:-/ absolute / inch / decimal}
; #@! TF.CreationDate,2021-05-29T17:15:18-04:00
; #@! TF.GenerationSoftware,Kicad,Pcbnew,(5.1.8)-1
FMAT,2
INCH
T1C0.0118
T2C0.0157
T3C0.0236
T4C0.0354
T5C0.0394
T6C0.0551
T7C0.0197
T8C0.0256
%
G90
G05
T1
X2.7598Y-4.3917
X3.002Y-3.9114
X3.0177Y-3.8799
X3.065Y-3.565
X3.1043Y-3.565
X3.1339Y-3.998
X3.2539Y-3.9114
X3.2618Y-3.8602
X3.2913Y-3.8504
X3.3012Y-4.0472
X3.343Y-4.2859
X3.3795Y-4.3125
X3.4039Y-3.9905
X3.4075Y-4.0295
X5.8169Y-3.5728
X5.8957Y-3.5492
T2
X2.7795Y-3.8701
X2.94Y-3.6004
X2.9665Y-3.6831
X3.0642Y-3.6562
X3.1142Y-4.7165
X3.124Y-4.5984
X3.2618Y-4.0571
X3.2618Y-3.9488
X3.3504Y-3.7421
X3.3504Y-3.8602
X3.372Y-4.1929
X3.4094Y-4.7165
X3.4488Y-3.6437
X3.4685Y-3.939
X3.498Y-3.9862
X3.8051Y-4.498
X3.8917Y-3.1417
X5.1122Y-3.8012
X5.8012Y-4.0413
X5.8996Y-3.2303
X5.935Y-3.876
X6.0177Y-4.687
X6.0413Y-3.5531
X6.3622Y-3.7421
X8.0945Y-3.9587
X8.2114Y-3.9598
X8.4587Y-3.565
X8.5965Y-3.998
X8.8031Y-3.9685
X8.8051Y-4.0453
T4
X9.1057Y-4.3301
X9.1764Y-4.4008
X8.5768Y-4.5492
X8.5768Y-4.6492
X7.7287Y-3.8012
X7.8287Y-3.8012
X8.2522Y-4.5847
X8.2905Y-4.4923
X9.1057Y-3.2722
X9.1764Y-3.2015
X8.2522Y-3.0177
X8.2905Y-3.1101
X8.5768Y-2.9531
X8.5768Y-3.0531
X9.3248Y-3.8012
X9.4248Y-3.8012
X9.2679Y-3.5149
X9.3603Y-3.4767
X8.863Y-4.4923
X8.9013Y-4.5847
X7.7933Y-4.1257
X7.8857Y-4.0874
X7.9771Y-4.4008
X8.0478Y-4.3301
X7.7933Y-3.4767
X7.8857Y-3.5149
X9.2679Y-4.0874
X9.3603Y-4.1257
X8.863Y-3.1101
X8.9013Y-3.0177
X7.9771Y-3.2015
X8.0478Y-3.2722
T5
X5.8693Y-4.8839
X5.9693Y-4.8839
X4.9567Y-3.3031
X5.0067Y-3.2165
X2.5614Y-4.2705
X2.5614Y-4.3705
X2.5614Y-4.4705
X2.6614Y-4.2705
X2.6614Y-4.3705
X2.6614Y-4.4705
X6.8319Y-3.2165
X6.8819Y-3.3031
T6
X6.9429Y-3.7012
X6.9429Y-3.8012
X6.9429Y-3.9012
X3.0618Y-2.7776
X3.1618Y-2.7776
X3.2618Y-2.7776
X3.3618Y-2.7776
X3.4618Y-2.7776
X8.3768Y-2.7776
X8.4768Y-2.7776
X8.5768Y-2.7776
X8.6768Y-2.7776
X8.7768Y-2.7776
X4.8957Y-3.7512
X4.8957Y-3.8512
X9.6004Y-3.7012
X9.6004Y-3.8012
X9.6004Y-3.9012
X7.5531Y-3.7512
X7.5531Y-3.8512
X5.7193Y-2.7776
X5.8193Y-2.7776
X5.9193Y-2.7776
X6.0193Y-2.7776
X6.1193Y-2.7776
X2.2382Y-3.7512
X2.2382Y-3.8512
X4.2854Y-3.7012
X4.2854Y-3.8012
X4.2854Y-3.9012
T7
X2.4067Y-4.7027
X4.3084Y-2.5906
X6.728Y-4.7491
X2.1824Y-5.0117
X7.6985Y-4.6795
X4.2428Y-5.0117
X7.6521Y-4.6331
X4.9714Y-2.9925
X2.248Y-5.0117
X5.1106Y-2.8533
X4.2428Y-2.5906
X9.4551Y-4.6795
X4.9946Y-2.9693
X2.1824Y-2.5906
X7.6289Y-4.6099
X9.689Y-2.5906
X2.4531Y-2.8533
X7.7681Y-2.8533
X9.4319Y-2.8997
X4.0937Y-4.7259
X7.563Y-2.5906
X4.9055Y-5.0117
X9.4087Y-2.8765
X9.6562Y-2.5906
X2.4067Y-2.8997
X9.4921Y-5.0117
X6.8208Y-2.9461
X6.7744Y-2.8997
X9.4783Y-2.9461
X6.7976Y-2.9229
X6.9659Y-5.0117
X2.3139Y-4.6099
X6.728Y-4.7491
X4.8727Y-2.5906
X2.3603Y-2.9461
X2.1496Y-5.0117
X6.844Y-4.6331
X2.3371Y-4.6331
X2.2808Y-5.0117
X6.844Y-2.9693
X4.3412Y-5.0117
X7.6753Y-4.6563
X4.2097Y-2.9925
X7.7681Y-4.7491
X5.0178Y-2.9461
X4.1401Y-2.9229
X5.0874Y-2.8765
X4.1865Y-4.6331
X9.5015Y-4.6331
X2.3136Y-2.5906
X9.5247Y-4.6099
X7.6289Y-2.9925
X2.3465Y-2.5906
X4.2097Y-4.6099
X9.4551Y-2.9229
X9.5247Y-2.9925
X4.9711Y-5.0117
X9.5249Y-5.0117
X6.7744Y-4.7027
X4.8399Y-2.5906
X7.5302Y-5.0117
X6.7744Y-2.8997
X6.9659Y-2.5906
X9.689Y-5.0117
X6.7512Y-4.7259
X6.9003Y-2.5906
X2.4531Y-4.7491
X6.8208Y-2.9461
X6.9331Y-5.0117
X2.4067Y-4.7027
X4.2756Y-2.5906
X6.728Y-2.8533
X2.4299Y-4.7259
X4.3412Y-2.5906
X5.0642Y-4.7027
X9.5015Y-4.6331
X4.1401Y-2.9229
X9.4783Y-4.6563
X4.1169Y-2.8997
X9.4087Y-4.7259
X5.0874Y-4.7259
X2.3136Y-5.0117
X5.0178Y-2.9461
X7.7217Y-2.8997
X2.3371Y-2.9693
X7.7217Y-4.7027
X2.3835Y-2.9229
X7.4646Y-2.5906
X7.6521Y-2.9693
X2.248Y-2.5906
X4.0937Y-4.7259
X9.3855Y-2.8533
X4.8727Y-5.0117
X7.5302Y-2.5906
X2.3371Y-2.9693
X9.4921Y-2.5906
X5.041Y-4.6795
X4.8071Y-5.0117
X7.6286Y-5.0117
X6.844Y-4.6331
X6.8346Y-2.5906
X6.7512Y-2.8765
X6.9331Y-2.5906
X4.1633Y-4.6563
X4.9946Y-4.6331
X4.9383Y-5.0117
X2.3603Y-4.6563
X4.1169Y-2.8997
X6.844Y-2.9693
X2.3603Y-4.6563
X2.2152Y-5.0117
X9.3855Y-4.7491
X4.3084Y-5.0117
X9.5247Y-4.6099
X4.0705Y-2.8533
X7.7449Y-4.7259
X5.041Y-2.9229
X4.1865Y-2.9693
X5.0642Y-2.8997
X9.4783Y-4.6563
X4.9946Y-2.9693
X2.3139Y-2.9925
X7.6985Y-4.6795
X5.1106Y-4.7491
X2.1496Y-2.5906
X7.6753Y-4.6563
X9.6234Y-2.5906
X2.2808Y-2.5906
X4.1865Y-4.6331
X9.5015Y-2.9693
X5.0039Y-5.0117
X9.3855Y-2.8533
X4.9711Y-2.5906
X7.6614Y-5.0117
X5.0178Y-4.6563
X2.3139Y-2.9925
X7.4974Y-5.0117
X6.7512Y-2.8765
X2.3835Y-2.9229
X6.8672Y-4.6099
X6.8675Y-2.5906
X2.4531Y-4.7491
X5.041Y-4.6795
X2.3835Y-4.6795
X4.21Y-2.5906
X6.7976Y-4.6795
X4.1169Y-4.7027
X4.1865Y-2.9693
X7.7681Y-4.7491
X4.21Y-5.0117
X9.4087Y-4.7259
X4.0705Y-2.8533
X7.6289Y-4.6099
X5.0874Y-2.8765
X4.1633Y-2.9461
X5.0642Y-2.8997
X7.6289Y-2.9925
X2.2152Y-2.5906
X7.6521Y-4.6331
X7.6985Y-2.9229
X4.1401Y-4.6795
X9.3855Y-4.7491
X4.1169Y-4.7027
X4.1633Y-4.6563
X9.4783Y-2.9461
X7.6753Y-2.9461
X9.5015Y-2.9693
X6.8346Y-5.0117
X7.4974Y-2.5906
X5.0039Y-2.5906
X7.5958Y-5.0117
X6.8208Y-4.6563
X2.4531Y-2.8533
X9.6234Y-5.0117
X5.0178Y-4.6563
X4.9383Y-2.5906
X6.8672Y-4.6099
X4.9055Y-2.5906
X2.3139Y-4.6099
X5.1106Y-4.7491
X4.1401Y-4.6795
X4.374Y-5.0117
X6.8672Y-2.9925
X4.1772Y-2.5906
X9.4551Y-4.6795
X4.2756Y-5.0117
X9.4319Y-4.7027
X4.1633Y-2.9461
X9.4319Y-4.7027
X2.4299Y-2.8765
X4.9714Y-2.9925
X7.7449Y-2.8765
X5.1106Y-2.8533
X4.0705Y-4.7491
X7.6753Y-2.9461
X9.5577Y-2.5906
X2.4299Y-2.8765
X7.6985Y-2.9229
X7.7449Y-2.8765
X9.4087Y-2.8765
X4.0705Y-4.7491
X9.4319Y-2.8997
X7.0315Y-5.0117
X7.6286Y-2.5906
X9.6562Y-5.0117
X6.9987Y-5.0117
X9.5906Y-5.0117
X6.7976Y-2.9229
X6.8672Y-2.9925
X9.5577Y-5.0117
X5.0874Y-4.7259
X4.8399Y-5.0117
X6.7976Y-4.6795
X4.8071Y-2.5906
X2.3835Y-4.6795
X4.9946Y-4.6331
X2.3371Y-4.6331
X4.374Y-2.5906
X6.8208Y-4.6563
X2.3465Y-5.0117
X7.7217Y-4.7027
X4.1772Y-5.0117
X7.7449Y-4.7259
X4.2097Y-2.9925
X5.041Y-2.9229
X4.0937Y-2.8765
X5.0642Y-4.7027
X7.6521Y-2.9693
X4.9714Y-4.6099
X2.4067Y-2.8997
X7.7681Y-2.8533
X9.5249Y-2.5906
X4.2097Y-4.6099
X7.7217Y-2.8997
X7.5958Y-2.5906
X9.5906Y-2.5906
X9.5247Y-2.9925
X6.9003Y-5.0117
X7.6614Y-2.5906
X7.4646Y-5.0117
X6.8675Y-5.0117
X7.563Y-5.0117
X6.7744Y-4.7027
X6.9987Y-2.5906
X9.4551Y-2.9229
X4.9714Y-4.6099
X7.0315Y-2.5906
X6.728Y-2.8533
X2.3603Y-2.9461
X2.4299Y-4.7259
X4.0937Y-2.8765
X6.7512Y-4.7259
T8
X3.148Y-4.8307
X3.3756Y-4.8307
T3
G00X3.0917Y-4.7882
M15
G01X3.0917Y-4.8315
M16
G05
G00X3.0917Y-4.9626
M15
G01X3.0917Y-4.9862
M16
G05
G00X3.4319Y-4.7882
M15
G01X3.4319Y-4.8315
M16
G05
G00X3.4319Y-4.9626
M15
G01X3.4319Y-4.9862
M16
G05
T0
M30
