%TF.GenerationSoftware,KiCad,Pcbnew,(5.1.8)-1*%
%TF.CreationDate,2021-03-22T04:11:20-04:00*%
%TF.ProjectId,panel,70616e65-6c2e-46b6-9963-61645f706362,rev?*%
%TF.SameCoordinates,Original*%
%TF.FileFunction,Profile,NP*%
%FSLAX46Y46*%
G04 Gerber Fmt 4.6, Leading zero omitted, Abs format (unit mm)*
G04 Created by KiCad (PCBNEW (5.1.8)-1) date 2021-03-22 04:11:20*
%MOMM*%
%LPD*%
G01*
G04 APERTURE LIST*
%TA.AperFunction,Profile*%
%ADD10C,0.050000*%
%TD*%
G04 APERTURE END LIST*
D10*
X246100000Y-126049999D02*
X246100000Y-121710000D01*
X241100000Y-67050001D02*
X241100000Y-69380000D01*
X245781604Y-72121722D02*
X242810869Y-75124665D01*
X246100000Y-67050001D02*
X246100000Y-71390000D01*
X239275335Y-121510869D02*
X240766213Y-122974239D01*
X245781604Y-120978278D02*
X242810869Y-117975335D01*
X245781604Y-72121722D02*
G75*
G03*
X246100000Y-71390000I-681604J731722D01*
G01*
X241100000Y-126049999D02*
X241100000Y-123720000D01*
X194933787Y-70125761D02*
G75*
G02*
X194600000Y-69380000I666213J745761D01*
G01*
X240766213Y-70125761D02*
G75*
G03*
X241100000Y-69380000I-666213J745761D01*
G01*
X239275335Y-71589131D02*
X240766213Y-70125761D01*
X189918396Y-72121722D02*
G75*
G02*
X189600000Y-71390000I681604J731722D01*
G01*
X194600000Y-126049999D02*
X194600000Y-123720000D01*
X189918396Y-120978278D02*
X192889131Y-117975335D01*
X189600000Y-126049999D02*
X189600000Y-121710000D01*
X189918396Y-120978278D02*
G75*
G03*
X189600000Y-121710000I681604J-731722D01*
G01*
X240766213Y-122974239D02*
G75*
G02*
X241100000Y-123720000I-666213J-745761D01*
G01*
X194933787Y-122974239D02*
G75*
G03*
X194600000Y-123720000I666213J-745761D01*
G01*
X196424665Y-121510869D02*
X194933787Y-122974239D01*
X245781604Y-120978278D02*
G75*
G02*
X246100000Y-121710000I-681604J-731722D01*
G01*
X189600000Y-67050001D02*
X189600000Y-71390000D01*
X196424665Y-71589131D02*
X194933787Y-70125761D01*
X189918396Y-72121722D02*
X192889131Y-75124665D01*
X194600000Y-67050001D02*
X194600000Y-69380000D01*
X111100000Y-126049999D02*
X111100000Y-121710000D01*
X106100000Y-67050001D02*
X106100000Y-69380000D01*
X110781604Y-72121722D02*
X107810869Y-75124665D01*
X111100000Y-67050001D02*
X111100000Y-71390000D01*
X104275335Y-121510869D02*
X105766213Y-122974239D01*
X110781604Y-120978278D02*
X107810869Y-117975335D01*
X110781604Y-72121722D02*
G75*
G03*
X111100000Y-71390000I-681604J731722D01*
G01*
X106100000Y-126049999D02*
X106100000Y-123720000D01*
X59933787Y-70125761D02*
G75*
G02*
X59600000Y-69380000I666213J745761D01*
G01*
X105766213Y-70125761D02*
G75*
G03*
X106100000Y-69380000I-666213J745761D01*
G01*
X104275335Y-71589131D02*
X105766213Y-70125761D01*
X54918396Y-72121722D02*
G75*
G02*
X54600000Y-71390000I681604J731722D01*
G01*
X59600000Y-126049999D02*
X59600000Y-123720000D01*
X54918396Y-120978278D02*
X57889131Y-117975335D01*
X54600000Y-126049999D02*
X54600000Y-121710000D01*
X54918396Y-120978278D02*
G75*
G03*
X54600000Y-121710000I681604J-731722D01*
G01*
X105766213Y-122974239D02*
G75*
G02*
X106100000Y-123720000I-666213J-745761D01*
G01*
X59933787Y-122974239D02*
G75*
G03*
X59600000Y-123720000I666213J-745761D01*
G01*
X61424665Y-121510869D02*
X59933787Y-122974239D01*
X110781604Y-120978278D02*
G75*
G02*
X111100000Y-121710000I-681604J-731722D01*
G01*
X54600000Y-67050001D02*
X54600000Y-71390000D01*
X61424665Y-71589131D02*
X59933787Y-70125761D01*
X54918396Y-72121722D02*
X57889131Y-75124665D01*
X59600000Y-67050001D02*
X59600000Y-69380000D01*
X127100000Y-126049999D02*
X127100000Y-123720000D01*
X122418396Y-120978278D02*
X125389131Y-117975335D01*
X122100000Y-126049999D02*
X122100000Y-121710000D01*
X122418396Y-120978278D02*
G75*
G03*
X122100000Y-121710000I681604J-731722D01*
G01*
X173266213Y-122974239D02*
G75*
G02*
X173600000Y-123720000I-666213J-745761D01*
G01*
X127433787Y-122974239D02*
G75*
G03*
X127100000Y-123720000I666213J-745761D01*
G01*
X128924665Y-121510869D02*
X127433787Y-122974239D01*
X178281604Y-120978278D02*
G75*
G02*
X178600000Y-121710000I-681604J-731722D01*
G01*
X178600000Y-126049999D02*
X178600000Y-121710000D01*
X171775335Y-121510869D02*
X173266213Y-122974239D01*
X178281604Y-120978278D02*
X175310869Y-117975335D01*
X173600000Y-126049999D02*
X173600000Y-123720000D01*
X173266213Y-70125761D02*
G75*
G03*
X173600000Y-69380000I-666213J745761D01*
G01*
X178281604Y-72121722D02*
G75*
G03*
X178600000Y-71390000I-681604J731722D01*
G01*
X178600000Y-67050001D02*
X178600000Y-71390000D01*
X171775335Y-71589131D02*
X173266213Y-70125761D01*
X178281604Y-72121722D02*
X175310869Y-75124665D01*
X173600000Y-67050001D02*
X173600000Y-69380000D01*
X122418396Y-72121722D02*
G75*
G02*
X122100000Y-71390000I681604J731722D01*
G01*
X127433787Y-70125761D02*
G75*
G02*
X127100000Y-69380000I666213J745761D01*
G01*
X242149123Y-76426246D02*
G75*
G03*
X242520000Y-75920000I-119123J476246D01*
G01*
X193550877Y-76426246D02*
G75*
G02*
X193180000Y-75920000I119123J476246D01*
G01*
X187945708Y-85182359D02*
G75*
G03*
X192889131Y-116561121I29904292J-11367641D01*
G01*
X222957296Y-128131726D02*
G75*
G03*
X237861121Y-121510869I-5107296J31581726D01*
G01*
X188600000Y-127050000D02*
X179600000Y-127050000D01*
X247100000Y-127050000D02*
X250100000Y-127050000D01*
X247100000Y-66050000D02*
X250100000Y-66050000D01*
X179600000Y-66050000D02*
X188600000Y-66050000D01*
X112100000Y-66050000D02*
X121100000Y-66050000D01*
X112100000Y-127050000D02*
X121100000Y-127050000D01*
X53600000Y-127050000D02*
X50600000Y-127050000D01*
X50600000Y-66050000D02*
X53600000Y-66050000D01*
X247754533Y-85182994D02*
G75*
G02*
X242810869Y-116561121I-29904533J-11367006D01*
G01*
X212742704Y-128131726D02*
G75*
G02*
X197838879Y-121510869I5107296J31581726D01*
G01*
X197838879Y-71589131D02*
G75*
G02*
X237861121Y-71589131I20011121J-24960869D01*
G01*
X193178139Y-75919835D02*
G75*
G03*
X192889131Y-75124665I-996115J88064D01*
G01*
X197838878Y-71589130D02*
G75*
G02*
X196424665Y-71589131I-707107J707106D01*
G01*
X237861122Y-71589130D02*
G75*
G03*
X239275335Y-71589131I707107J707106D01*
G01*
X242521861Y-75919835D02*
G75*
G02*
X242810869Y-75124665I996115J88064D01*
G01*
X192889130Y-116561122D02*
G75*
G02*
X192889131Y-117975335I-707106J-707107D01*
G01*
X242810870Y-116561122D02*
G75*
G03*
X242810869Y-117975335I707106J-707107D01*
G01*
X197838878Y-121510870D02*
G75*
G03*
X196424665Y-121510869I-707107J-707106D01*
G01*
X237861122Y-121510870D02*
G75*
G02*
X239275335Y-121510869I707107J-707106D01*
G01*
X195599999Y-66050000D02*
G75*
G03*
X194600000Y-67050001I1J-1000000D01*
G01*
X189600000Y-67050000D02*
G75*
G03*
X188600000Y-66050000I-1000000J0D01*
G01*
X240100000Y-66050000D02*
G75*
G02*
X241100000Y-67050000I0J-1000000D01*
G01*
X246100000Y-67050000D02*
G75*
G02*
X247100000Y-66050000I1000000J0D01*
G01*
X246100000Y-126050000D02*
G75*
G03*
X247100000Y-127050000I1000000J0D01*
G01*
X195600000Y-127050001D02*
G75*
G02*
X194599999Y-126050000I0J1000001D01*
G01*
X240100001Y-127050000D02*
G75*
G03*
X241100000Y-126049999I-1J1000000D01*
G01*
X240100001Y-127050000D02*
X234849999Y-127049998D01*
X195600000Y-127050001D02*
X200850001Y-127049998D01*
X189600000Y-126050000D02*
G75*
G02*
X188600000Y-127050000I-1000000J0D01*
G01*
X240100000Y-66050000D02*
X234849999Y-66050002D01*
X195599999Y-66050000D02*
X200850001Y-66050002D01*
X200850001Y-66050002D02*
G75*
G02*
X234849999Y-66050002I16999999J-30499998D01*
G01*
X234849999Y-127049998D02*
G75*
G02*
X200850001Y-127049998I-16999999J30499998D01*
G01*
X107810869Y-76538880D02*
G75*
G02*
X107810869Y-116561121I-24960869J-20011120D01*
G01*
X102861120Y-121510869D02*
G75*
G02*
X62838879Y-121510869I-20011120J24960869D01*
G01*
X57889130Y-116561120D02*
G75*
G02*
X57889132Y-76538878I24960870J20011120D01*
G01*
X62838879Y-71589131D02*
G75*
G02*
X102861121Y-71589131I20011121J-24960869D01*
G01*
X57889130Y-76538878D02*
G75*
G03*
X57889131Y-75124665I-707106J707107D01*
G01*
X62838878Y-71589130D02*
G75*
G02*
X61424665Y-71589131I-707107J707106D01*
G01*
X102861122Y-71589130D02*
G75*
G03*
X104275335Y-71589131I707107J707106D01*
G01*
X107810870Y-76538878D02*
G75*
G02*
X107810869Y-75124665I707106J707107D01*
G01*
X57889130Y-116561122D02*
G75*
G02*
X57889131Y-117975335I-707106J-707107D01*
G01*
X107810870Y-116561122D02*
G75*
G03*
X107810869Y-117975335I707106J-707107D01*
G01*
X62838878Y-121510870D02*
G75*
G03*
X61424665Y-121510869I-707107J-707106D01*
G01*
X102861122Y-121510870D02*
G75*
G02*
X104275335Y-121510869I707107J-707106D01*
G01*
X60599999Y-66050000D02*
G75*
G03*
X59600000Y-67050001I1J-1000000D01*
G01*
X54600000Y-67050000D02*
G75*
G03*
X53600000Y-66050000I-1000000J0D01*
G01*
X105100000Y-66050000D02*
G75*
G02*
X106100000Y-67050000I0J-1000000D01*
G01*
X111100000Y-67050000D02*
G75*
G02*
X112100000Y-66050000I1000000J0D01*
G01*
X111100000Y-126050000D02*
G75*
G03*
X112100000Y-127050000I1000000J0D01*
G01*
X60600000Y-127050001D02*
G75*
G02*
X59599999Y-126050000I0J1000001D01*
G01*
X105100001Y-127050000D02*
G75*
G03*
X106100000Y-126049999I-1J1000000D01*
G01*
X105100001Y-127050000D02*
X99849999Y-127049998D01*
X60600000Y-127050001D02*
X65850001Y-127049998D01*
X54600000Y-126050000D02*
G75*
G02*
X53600000Y-127050000I-1000000J0D01*
G01*
X105100000Y-66050000D02*
X99849999Y-66050002D01*
X60599999Y-66050000D02*
X65850001Y-66050002D01*
X65850001Y-66050002D02*
G75*
G02*
X99849999Y-66050002I16999999J-30499998D01*
G01*
X99849999Y-127049998D02*
G75*
G02*
X65850001Y-127049998I-16999999J30499998D01*
G01*
X172600001Y-127050000D02*
G75*
G03*
X173600000Y-126049999I-1J1000000D01*
G01*
X178600000Y-126050000D02*
G75*
G03*
X179600000Y-127050000I1000000J0D01*
G01*
X128100000Y-127050001D02*
G75*
G02*
X127099999Y-126050000I0J1000001D01*
G01*
X122100000Y-126050000D02*
G75*
G02*
X121100000Y-127050000I-1000000J0D01*
G01*
X128100000Y-127050001D02*
X133350001Y-127049998D01*
X172600001Y-127050000D02*
X167349999Y-127049998D01*
X172600000Y-66050000D02*
X167349999Y-66050002D01*
X128099999Y-66050000D02*
X133350001Y-66050002D01*
X128924665Y-71589131D02*
X127433787Y-70125761D01*
X127100000Y-67050001D02*
X127100000Y-69380000D01*
X122418396Y-72121722D02*
X125389131Y-75124665D01*
X122100000Y-67050001D02*
X122100000Y-71390000D01*
X128099999Y-66050000D02*
G75*
G03*
X127100000Y-67050001I1J-1000000D01*
G01*
X122100000Y-67050000D02*
G75*
G03*
X121100000Y-66050000I-1000000J0D01*
G01*
X172600000Y-66050000D02*
G75*
G02*
X173600000Y-67050000I0J-1000000D01*
G01*
X178600000Y-67050000D02*
G75*
G02*
X179600000Y-66050000I1000000J0D01*
G01*
X175310869Y-76538880D02*
G75*
G02*
X175310869Y-116561121I-24960869J-20011120D01*
G01*
X170361120Y-121510869D02*
G75*
G02*
X130338879Y-121510869I-20011120J24960869D01*
G01*
X125389130Y-116561120D02*
G75*
G02*
X125389132Y-76538878I24960870J20011120D01*
G01*
X130338879Y-71589131D02*
G75*
G02*
X170361121Y-71589131I20011121J-24960869D01*
G01*
X170361122Y-71589130D02*
G75*
G03*
X171775335Y-71589131I707107J707106D01*
G01*
X175310870Y-76538878D02*
G75*
G02*
X175310869Y-75124665I707106J707107D01*
G01*
X175310870Y-116561122D02*
G75*
G03*
X175310869Y-117975335I707106J-707107D01*
G01*
X170361122Y-121510870D02*
G75*
G02*
X171775335Y-121510869I707107J-707106D01*
G01*
X130338878Y-121510870D02*
G75*
G03*
X128924665Y-121510869I-707107J-707106D01*
G01*
X125389130Y-116561122D02*
G75*
G02*
X125389131Y-117975335I-707106J-707107D01*
G01*
X125389130Y-76538878D02*
G75*
G03*
X125389131Y-75124665I-707106J707107D01*
G01*
X130338878Y-71589130D02*
G75*
G02*
X128924665Y-71589131I-707107J707106D01*
G01*
X50600000Y-136550000D02*
X250100000Y-136550000D01*
X167349999Y-127049998D02*
G75*
G02*
X133350001Y-127049998I-16999999J30499998D01*
G01*
X250100000Y-127050000D02*
X250100000Y-136550000D01*
X50600000Y-127050000D02*
X50600000Y-136550000D01*
X212742813Y-128131994D02*
G75*
G02*
X222957296Y-128131727I5107187J2081994D01*
G01*
X193550515Y-76427695D02*
G75*
G02*
X187945708Y-85182359I-1248264J-5372305D01*
G01*
X247755255Y-85183554D02*
G75*
G02*
X242149122Y-76426246I-4357506J3383554D01*
G01*
X133350001Y-66050002D02*
G75*
G02*
X167349999Y-66050002I16999999J-30499998D01*
G01*
X250100000Y-66050000D02*
X250100000Y-56550000D01*
X50600000Y-66050000D02*
X50600000Y-56550000D01*
X250100000Y-56550000D02*
X50600000Y-56550000D01*
M02*
